<?xml version="1.0" encoding="UTF-8" standalone="no"?>
<!-- Created with Inkscape (http://www.inkscape.org/) -->

<svg
   width="100"
   height="30.1"
   viewBox="0 0 26.458332 7.9639585"
   version="1.1"
   id="svg1"
   xml:space="preserve"
   xmlns="http://www.w3.org/2000/svg"
   xmlns:svg="http://www.w3.org/2000/svg"><defs
     id="defs1"><rect
       x="329.15005"
       y="432.74707"
       width="414.38812"
       height="186.21239"
       id="rect2" /></defs><g
     id="layer1"><rect
       style="opacity:1;fill:#238636;fill-opacity:1;stroke:#39924a;stroke-width:0.191392;stroke-dasharray:none;stroke-opacity:1"
       id="rect3"
       width="26.266941"
       height="7.7461076"
       x="0.095696129"
       y="0.095696129"
       ry="1.4089673" /><g
       style="overflow:visible;fill:#ffffff;fill-opacity:1;stroke:none"
       id="g1"
       transform="matrix(0.24599146,0,0,0.2446989,19.286598,1.9984231)"><path
         d="m 4.427,7.427 3.396,3.396 a 0.25,0.25 0 0 0 0.354,0 L 11.573,7.427 A 0.25,0.25 0 0 0 11.396,7 H 4.604 A 0.25,0.25 0 0 0 4.427,7.427 Z"
         id="path1"
         style="fill:#ffffff;fill-opacity:1;stroke:none" /></g><g
       style="overflow:visible;fill:#ffffff;fill-opacity:1;stroke:none"
       id="g2"
       transform="matrix(0.25171038,0,0,0.25038778,3.2148007,1.9734377)"><path
         d="m 11.28,3.22 4.25,4.25 a 0.75,0.75 0 0 1 0,1.06 l -4.25,4.25 A 0.749,0.749 0 0 1 10.005,12.454 0.749,0.749 0 0 1 10.22,11.72 L 13.94,8 10.22,4.28 A 0.749,0.749 0 0 1 10.546,3.005 0.749,0.749 0 0 1 11.28,3.22 Z m -6.56,0 A 0.751,0.751 0 0 1 5.762,3.238 0.751,0.751 0 0 1 5.78,4.28 L 2.06,8 5.78,11.72 A 0.749,0.749 0 0 1 5.454,12.995 0.749,0.749 0 0 1 4.72,12.78 L 0.47,8.53 a 0.75,0.75 0 0 1 0,-1.06 z"
         id="path1-5"
         style="fill:#ffffff;fill-opacity:1;stroke:none" /></g><text
       xml:space="preserve"
       transform="matrix(0.1876118,0,0,0.1780072,-52.59976,-74.280059)"
       id="text2"
       style="font-style:normal;font-variant:normal;font-weight:normal;font-stretch:normal;font-size:20px;line-height:1;font-family:'Segoe UI';-inkscape-font-specification:'Segoe UI';letter-spacing:-1px;white-space:pre;shape-inside:url(#rect2);display:inline;opacity:1;fill:#ffffff;fill-opacity:1;stroke:none;stroke-width:0.249449"><tspan
         x="329.15039"
         y="448.26118"
         id="tspan1">Code</tspan></text></g></svg>
